HIERARCHY
ROOT Hips
{
	OFFSET 0.000000 0.000000 0.000000 
	CHANNELS 6 Xposition Yposition Zposition Yrotation Zrotation Xrotation 
	JOINT Lumbar
	{
		OFFSET 0.000000 0.000000 0.000000 
		CHANNELS 3 Zrotation Xrotation Yrotation
		JOINT Neck
		{
			OFFSET 0.000000 0.445665 0.000000 
			CHANNELS 3 Zrotation Xrotation Yrotation
			End Site
			{
				OFFSET 0.000000 0.227535 0.000000 
			}
		}
		JOINT RightShoulder
		{
			OFFSET 0.019635 0.377685 0.194865 
			CHANNELS 3 Zrotation Xrotation Yrotation
			JOINT RightElbow
			{
				OFFSET 0.000000 -0.243375 0.000000 
				CHANNELS 2 Zrotation Yrotation
				JOINT RightWrist
				{
					OFFSET 0.000000 -0.264825 0.000000 
					CHANNELS 2 Zrotation Xrotation
					End Site
					{
						OFFSET 0.006600 -0.176220 0.000990 
					}
				}
			}
		}
		JOINT LeftShoulder
		{
			OFFSET 0.019635 0.377685 -0.194865 
			CHANNELS 3 Zrotation Xrotation Yrotation
			JOINT LeftElbow
			{
				OFFSET 0.000000 -0.243375 0.000000 
				CHANNELS 2 Zrotation Yrotation
				JOINT LeftWrist
				{
					OFFSET 0.000000 -0.264825 0.000000 
					CHANNELS 2 Zrotation Xrotation
					End Site
					{
						OFFSET 0.006600 -0.176220 -0.000990 
					}
				}
			}
		}
	}
	JOINT RightHip
	{
		OFFSET 0.052140 -0.069960 0.075570 
		CHANNELS 3 Zrotation Xrotation Yrotation
		JOINT RightKnee
		{
			OFFSET 0.000000 -0.402270 0.000000 
			CHANNELS 1 Zrotation
			JOINT RightAnkle
			{
				OFFSET 0.000000 -0.404085 0.000000 
				CHANNELS 3 Zrotation Xrotation Yrotation
				End Site
				{
					OFFSET 0.204105 -0.089430 0.008415 
				}
			}
		}
	}
	JOINT LeftHip
	{
		OFFSET 0.052140 -0.069960 -0.075570 
		CHANNELS 3 Zrotation Xrotation Yrotation
		JOINT LeftKnee
		{
			OFFSET 0.000000 -0.402270 0.000000 
			CHANNELS 1 Zrotation
			JOINT LeftAnkle
			{
				OFFSET 0.000000 -0.404085 0.000000 
				CHANNELS 3 Zrotation Xrotation Yrotation
				End Site
				{
					OFFSET 0.204105 -0.089430 -0.008415 
				}
			}
		}
	}
}
MOTION
Frames: 25
Frame Time: 0.02
0.26822 0.03228 0.45977 75.0545 -28.34865 -14.23501 47.23175 -2.24046 0.34522 -7.88929 12.48095 -0.83079 33.48261 -21.90576 -7.57837 124.59178 52.83216 -48.39413 -0.99733 17.486 19.76683 4.83034 111.92105 -72.83851 -34.15311 2.70623 48.5794 -1.14486 -0.32064 -63.93622 -7.8642 -4.07203 -2.90916 45.11236 3.62972 6.51073 -29.26513 -6.76893 2.08038 1.69536
0.27112 0.03376 0.44975 75.64973 -28.59274 -14.65386 46.88506 -2.08788 -0.3278 -8.17398 12.98009 -0.83079 33.49475 -22.20188 -7.90947 125.23249 53.42205 -48.04755 -1.05686 16.50907 19.72652 6.5887 113.27864 -72.00739 -33.85021 2.58876 50.26961 -1.48079 -0.09712 -61.37844 -7.91404 -4.07093 -2.90216 44.51263 4.14551 6.54941 -29.20143 -6.73959 1.9556 1.62924
0.2743 0.03507 0.43985 76.23582 -28.95177 -15.04935 46.58471 -1.93593 -1.0152 -8.32666 13.48337 -0.83079 33.55125 -22.62632 -8.31325 125.89068 54.83002 -47.21133 -1.19125 15.2811 20.12346 8.70186 114.77112 -71.58662 -33.2083 2.51646 51.82894 -1.96451 0.14631 -57.83167 -7.99708 -4.02226 -2.8641 44.06252 4.73843 6.79568 -29.17781 -6.71885 1.80364 1.54973
0.27741 0.03643 0.42985 76.82058 -29.26167 -15.44943 46.273 -1.78432 -1.68709 -8.53491 13.97433 -0.83079 33.55797 -22.95314 -8.6457 126.52728 55.8696 -46.61218 -1.29193 14.1681 20.25484 10.64366 116.18115 -70.99831 -32.79673 2.42804 53.42136 -2.37454 0.41374 -54.69158 -8.06662 -3.98433 -2.83463 43.54568 5.28741 6.9142 -29.13401 -6.69299 1.66913 1.47887
0.2803 0.03789 0.42008 77.42498 -29.56466 -15.87886 45.92163 -1.62713 -2.40013 -8.76367 14.51179 -0.83079 33.69205 -23.44964 -9.13949 127.23135 56.88669 -45.97884 -1.39166 13.04192 20.66985 12.65372 117.69397 -70.31899 -32.0801 2.31974 55.13497 -2.81297 0.5474 -51.68386 -8.12846 -3.99186 -2.8283 43.03421 5.87757 7.17303 -29.10034 -6.67349 1.51272 1.39701
0.28371 0.03912 0.40983 77.98907 -29.90558 -16.24015 45.66326 -1.48323 -3.02949 -8.91757 14.9525 -0.83079 33.56786 -23.623 -9.31627 127.78933 58.12954 -45.2915 -1.50874 11.88748 20.60243 14.58045 119.01342 -69.92028 -31.90484 2.26268 56.56003 -3.22479 0.95717 -48.2014 -8.21408 -3.89485 -2.76713 42.54109 6.39896 7.18404 -29.05435 -6.64233 1.39615 1.33523
0.28831 0.03978 0.39831 78.42651 -30.34083 -16.41907 45.65244 -1.37089 -3.42611 -8.89822 15.12428 -0.83079 32.7542 -22.86018 -8.58007 128.01602 60.04214 -44.54382 -1.68356 10.7146 19.03571 16.38622 119.84515 -70.32856 -33.39147 2.35306 57.23562 -3.55449 2.18486 -43.43547 -8.36349 -3.50533 -2.55394 42.08727 6.71208 6.52869 -28.96589 -6.57678 1.389 1.32834
0.29343 0.04022 0.38627 78.82713 -30.80682 -16.53007 45.73339 -1.27307 -3.7376 -8.80767 15.19835 -0.83079 31.67419 -21.77155 -7.52633 128.08272 62.12413 -43.7521 -1.86845 9.5248 16.98025 18.06082 120.46465 -70.98427 -35.41574 2.49052 57.62107 -3.84736 3.6771 -38.26975 -8.53459 -3.01509 -2.28814 41.64215 6.95397 5.60849 -28.8638 -6.4992 1.42378 1.34258
0.2984 0.04076 0.37438 79.25659 -31.24581 -16.67103 45.77039 -1.17238 -4.08589 -8.74868 15.31726 -0.83079 30.69175 -20.83668 -6.63009 128.16922 63.95561 -43.00722 -2.03043 8.34371 15.18485 19.66259 121.12491 -71.44234 -37.13997 2.59589 58.12844 -4.13934 5.01036 -33.4321 -8.69207 -2.58089 -2.05165 41.17356 7.226 4.76085 -28.76599 -6.4268 1.4446 1.34989
0.30302 0.04129 0.36286 79.63514 -31.74181 -16.81336 45.8172 -1.0564 -4.44111 -8.68832 15.43442 -0.83079 29.80407 -19.87316 -5.67858 128.47023 66.49747 -42.16642 -2.27186 7.14441 13.23784 21.82536 122.01379 -72.27146 -39.09569 2.74861 58.67429 -4.51107 6.51351 -27.9424 -8.86715 -2.10134 -1.79107 40.78728 7.50499 4.10734 -28.67506 -6.35526 1.4447 1.34632
0.30848 0.04181 0.35046 80.11043 -32.1275 -16.93916 45.8664 -0.97512 -4.76346 -8.61585 15.53207 -0.83079 28.66257 -18.90176 -4.76849 128.29817 67.65236 -41.47871 -2.34992 5.98854 11.49335 22.79722 122.3885 -72.38437 -40.6913 2.81243 59.07158 -4.70576 7.71834 -23.72764 -9.00958 -1.6934 -1.56883 40.23649 7.75807 3.00249 -28.56935 -6.27979 1.49608 1.36951
0.31611 0.04225 0.33574 80.86848 -32.17659 -17.01642 45.88457 -0.99148 -4.99773 -8.52612 15.59851 -0.83079 26.82432 -17.88883 -4.02921 126.75545 64.36941 -41.60922 -1.96858 4.90843 10.35109 20.39733 121.271 -70.43117 -41.25343 2.62712 59.13775 -4.42199 8.09602 -23.14713 -9.06257 -1.50438 -1.46331 39.17076 7.89835 0.55223 -28.40053 -6.18936 1.69824 1.47123
0.32454 0.0427 0.32017 81.7245 -32.117 -17.0826 45.90387 -1.04128 -5.20447 -8.42767 15.6488 -0.83079 24.75276 -16.89698 -3.34746 124.76113 59.77005 -41.83956 -1.42368 3.88506 9.44063 16.82496 119.66487 -67.75236 -41.42301 2.34942 59.06222 -3.96039 8.15387 -23.86437 -9.08073 -1.39186 -1.39876 37.95012 8.02402 -2.31606 -28.22406 -6.09676 1.9474 1.59757
0.3326 0.04318 0.30501 82.53071 -32.12334 -17.16741 45.93331 -1.07222 -5.43655 -8.33456 15.70734 -0.83079 22.82563 -15.96026 -2.65134 123.04164 56.16179 -41.75689 -0.95649 2.86601 8.47327 13.86094 118.36455 -65.42139 -41.70832 2.10812 59.04854 -3.57844 8.31641 -23.98367 -9.11063 -1.24669 -1.31687 36.83702 8.19641 -4.88332 -28.06496 -6.00963 2.16198 1.70607
0.34073 0.04349 0.28971 83.35582 -32.06339 -17.19461 45.92401 -1.11905 -5.61444 -8.23261 15.75892 -0.83079 20.71995 -14.73969 -1.88927 121.02379 50.96912 -42.74608 -0.47347 1.71038 7.28856 10.56646 116.70749 -63.02093 -42.26041 1.8904 59.04082 -3.1999 8.65537 -24.1279 -9.15829 -1.08867 -1.22755 35.56431 8.20348 -7.91819 -27.83787 -5.90276 2.43241 1.84266
0.34887 0.04418 0.27454 84.16796 -32.11232 -17.33734 45.99069 -1.14064 -5.89611 -8.14851 15.82208 -0.83079 18.94321 -14.11879 -1.2889 119.52095 48.67665 -41.59764 0.01308 0.86389 6.61296 7.69268 115.67496 -60.59216 -42.17716 1.60311 58.98402 -2.77289 8.55311 -24.52742 -9.16074 -0.97738 -1.16435 34.59115 8.54437 -10.08793 -27.76187 -5.83714 2.59891 1.92722
0.35692 0.04588 0.25976 84.89765 -32.51387 -17.82533 46.29878 -1.08314 -6.50187 -8.11218 15.92471 -0.83079 18.05259 -15.15668 -1.06654 119.56225 55.45401 -33.91191 0.49084 0.76117 7.33454 6.18755 116.53188 -58.24536 -40.2529 1.12862 58.88688 -2.25245 7.26002 -25.37323 -9.04387 -0.97292 -1.16163 34.44924 9.87909 -9.65038 -28.00924 -5.88168 2.45179 1.85425
0.36492 0.04798 0.24519 85.61521 -33.02396 -18.42579 46.67696 -0.9991 -7.20703 -8.09547 16.0394 -0.83079 17.51447 -16.79699 -1.01668 120.13574 65.06457 -24.18211 0.96248 0.9834 8.55615 5.16074 118.02634 -55.90153 -37.73134 0.59081 58.73596 -1.6904 5.54179 -26.42285 -8.88319 -1.01393 -1.18433 34.62087 11.53753 -8.34585 -28.42627 -5.96852 2.20125 1.72952
0.37287 0.04993 0.23063 86.35349 -33.46745 -18.95982 47.00159 -0.92808 -7.8478 -8.07219 16.14671 -0.83079 16.87173 -18.15845 -0.92512 120.45928 72.882 -15.79308 1.42303 1.12279 9.51695 3.96932 119.20073 -53.56078 -35.60397 0.09276 58.57079 -1.14925 4.05045 -27.34204 -8.74435 -1.03701 -1.1968 34.67048 13.00358 -7.51598 -28.82919 -6.03908 2.00752 1.63338
0.38114 0.05173 0.21557 87.03138 -33.97966 -19.55856 47.41758 -0.85472 -8.5715 -8.03745 16.26132 -0.83079 15.99721 -19.5438 -0.68046 120.80259 82.75496 -5.68349 1.94823 0.99964 10.61816 2.51853 120.4877 -51.15783 -32.95684 -0.45668 58.56163 -0.59232 2.40702 -28.46366 -8.59597 -1.05143 -1.20523 34.62632 14.66142 -6.36971 -28.9683 -6.0978 1.77326 1.51629
0.38872 0.05394 0.20163 87.83039 -34.37648 -20.04878 47.66033 -0.77885 -9.1429 -8.03287 16.36394 -0.83079 15.67821 -21.01976 -0.79495 121.23521 89.07799 1.34752 2.33472 1.48819 11.55409 1.73136 121.69587 -48.91753 -31.24072 -0.91061 58.21938 -0.06214 0.98218 -29.19793 -8.45774 -1.09336 -1.22742 34.85636 15.99532 -5.65934 -29.69424 -6.19041 1.59924 1.43076
0.3945 0.05725 0.19061 88.97069 -34.42397 -20.21681 47.40353 -0.70794 -9.30026 -8.09388 16.42954 -0.83079 16.92748 -22.6167 -1.85729 121.8023 84.5497 -0.7824 2.34332 3.68119 11.80856 2.71402 122.55109 -46.9277 -32.37179 -1.10524 56.94817 0.39517 0.27826 -28.78371 -8.35635 -1.2029 -1.28268 35.74657 16.36919 -6.46157 -32.02194 -6.37373 1.60756 1.43988
0.39957 0.06095 0.18073 90.23205 -34.35304 -20.2707 46.97076 -0.63435 -9.29558 -8.18689 16.48295 -0.83079 18.70105 -24.27815 -3.27372 122.43979 76.42174 -6.05097 2.21141 6.45722 11.8942 4.34431 123.30356 -45.13878 -34.43938 -1.19782 55.3488 0.82099 -0.19164 -27.97178 -8.26716 -1.33771 -1.35049 36.90597 16.40368 -7.71121 -34.92728 -6.58835 1.68115 1.48315
0.40491 0.06443 0.1704 91.43497 -34.33946 -20.37381 46.62107 -0.55819 -9.34465 -8.27394 16.5426 -0.83079 20.15837 -25.90116 -4.53075 123.03557 70.1845 -9.77706 2.14013 8.9081 12.12755 5.64772 124.09217 -43.39545 -35.993 -1.32305 53.91475 1.25315 -0.7761 -27.3542 -8.17386 -1.45869 -1.41147 37.95687 16.58431 -8.69163 -37.55685 -6.78371 1.73123 1.51432
0.41048 0.0681 0.15979 92.65209 -34.3142 -20.49268 46.26038 -0.49673 -9.47996 -8.32599 16.59957 -0.83079 21.96232 -27.59366 -5.7934 123.69082 62.97881 -13.92125 2.08076 11.63825 12.09234 7.10241 124.94762 -41.0872 -37.89299 -1.50672 52.40928 1.72109 -1.34198 -26.68626 -8.07315 -1.59102 -1.47804 38.96229 16.80924 -9.92426 -40.26 -7.00165 1.75348 1.5302
